<svg xmlns="http://www.w3.org/2000/svg" version="1.1" xmlns:xlink="http://www.w3.org/1999/xlink" width="1536.000000pt" height="672.000000pt"><svg version="1.0" xmlns="http://www.w3.org/2000/svg" width="1536.000000pt" height="672.000000pt" viewBox="0 0 1536.000000 672.000000" preserveAspectRatio="xMidYMid meet">

<g transform="translate(0.000000,672.000000) scale(0.100000,-0.100000)" fill="#000000" stroke="none">
<path d="M5460 6229 c0 -22 14 -36 83 -83 45 -32 156 -109 247 -172 141 -98
279 -184 295 -184 13 0 3 18 -12 23 -10 4 -58 36 -108 71 -136 99 -239 170
-355 245 -58 37 -116 81 -128 97 l-21 29 -1 -26z"></path>
<path d="M6577 6020 c-392 -4 -459 -7 -467 -20 -5 -8 -10 -18 -10 -23 0 -4
334 -7 743 -7 717 0 745 -1 816 -20 163 -46 240 -117 290 -271 l22 -64 -4 46
c-10 111 -124 263 -241 318 -116 55 -68 54 -1149 41z"></path>
<path d="M7971 5574 c0 -11 3 -14 6 -6 3 7 2 16 -1 19 -3 4 -6 -2 -5 -13z"></path>
<path d="M9078 5492 c-14 -10 -43 -34 -64 -54 -21 -21 -46 -38 -56 -38 -10 0
-18 -3 -18 -8 0 -4 -21 -18 -47 -32 -27 -14 -52 -28 -58 -33 -30 -23 -202
-138 -215 -144 -8 -3 -32 -19 -52 -35 -21 -16 -70 -45 -110 -65 -40 -19 -107
-59 -150 -89 -42 -30 -81 -54 -87 -54 -6 0 -11 -4 -11 -9 0 -5 -30 -24 -67
-41 -38 -18 -88 -47 -113 -64 -25 -18 -81 -54 -125 -81 -44 -26 -123 -76 -175
-110 -52 -35 -160 -100 -240 -145 -80 -45 -185 -106 -235 -135 -149 -89 -230
-102 -392 -65 -91 21 -114 33 -230 111 -37 26 -84 56 -103 67 -46 26 -136 83
-241 153 -46 31 -123 77 -171 103 -48 26 -93 52 -100 59 -20 20 -166 117 -175
117 -5 0 -87 53 -183 118 l-175 118 -11 64 -12 65 -1 -76 c-1 -70 1 -77 27
-101 25 -23 148 -108 157 -108 4 0 298 -193 400 -263 33 -22 137 -91 230 -153
94 -62 197 -132 229 -155 102 -71 264 -169 319 -190 100 -41 282 -36 372 9 60
30 456 280 754 477 67 44 191 125 275 180 85 55 216 141 291 190 76 50 152 99
171 110 18 11 85 54 148 95 204 132 281 180 289 180 4 0 12 -10 17 -22 8 -21
9 -21 9 7 1 53 -30 74 -71 47z"></path>
<path d="M5463 5410 c0 -36 2 -50 4 -32 2 17 2 47 0 65 -2 17 -4 3 -4 -33z"></path>
<path d="M5462 5290 c0 -14 2 -19 5 -12 2 6 2 18 0 25 -3 6 -5 1 -5 -13z"></path>
<path d="M5460 4210 c-1 -283 -3 -728 -4 -988 -2 -443 -1 -474 15 -483 11 -5
421 -9 1046 -9 1195 0 1227 2 1413 71 62 23 154 67 204 97 136 82 285 234 351
357 48 92 3 59 -68 -49 -25 -37 -50 -62 -72 -72 -18 -7 -54 -31 -79 -53 -112
-97 -348 -208 -492 -231 -124 -20 -416 -27 -1309 -28 -570 -1 -893 2 -918 9
-25 7 -41 18 -47 33 -4 13 -12 428 -16 922 -4 494 -10 908 -15 919 -4 11 -8
-212 -9 -495z"></path>
<path d="M7870 4373 c0 -5 15 -38 34 -73 31 -60 45 -100 75 -216 6 -23 12 -81
12 -130 1 -67 3 -79 8 -49 18 109 -19 314 -75 411 -23 41 -54 74 -54 57z"></path>
<path d="M9143 4215 c0 -33 2 -45 4 -27 2 18 2 45 0 60 -2 15 -4 0 -4 -33z"></path>
<path d="M9137 4055 c-4 -38 -7 -204 -7 -369 l0 -299 132 -136 c428 -441 513
-524 531 -518 8 2 11 21 9 53 -3 37 -9 53 -25 64 -12 8 -80 69 -150 135 -71
66 -159 147 -197 180 -37 33 -73 69 -79 80 -7 11 -34 38 -61 60 -29 23 -68 70
-93 110 l-42 70 -3 295 c-3 339 -5 371 -15 275z"></path>
<path d="M7978 3785 c-3 -14 -1 -28 3 -31 5 -3 9 9 9 25 0 38 -6 40 -12 6z"></path>
<path d="M7961 3714 c0 -11 3 -14 6 -6 3 7 2 16 -1 19 -3 4 -6 -2 -5 -13z"></path>
<path d="M7927 3650 c-3 -11 -3 -20 -1 -20 2 0 8 9 14 20 6 11 7 20 2 20 -6 0
-12 -9 -15 -20z"></path>
<path d="M8547 3403 c-4 -3 -7 -11 -7 -17 0 -6 5 -5 12 2 6 6 9 14 7 17 -3 3
-9 2 -12 -2z"></path>
<path d="M8526 3353 c-6 -14 -5 -15 5 -6 7 7 10 15 7 18 -3 3 -9 -2 -12 -12z"></path>
<path d="M9718 1894 c16 -8 15 -24 -2 -24 -8 0 -32 -21 -55 -46 -31 -35 -43
-60 -55 -114 -9 -38 -16 -73 -15 -77 1 -11 37 69 38 85 2 24 54 92 86 112 20
13 50 20 79 20 79 0 133 -48 168 -150 19 -57 22 -87 22 -230 1 -138 -2 -174
-18 -220 -27 -78 -49 -109 -97 -142 -56 -38 -103 -37 -179 3 -84 43 -98 67
-132 214 l-14 60 -39 0 c-28 0 -39 5 -41 18 -1 9 2 20 7 23 6 3 -3 19 -20 34
-37 36 -47 85 -31 148 12 48 75 171 94 184 6 4 7 10 3 14 -11 11 -54 -34 -81
-86 -29 -55 -66 -200 -66 -258 0 -55 26 -175 49 -227 42 -96 157 -184 268
-205 152 -30 293 3 388 91 91 84 126 176 123 329 -1 52 -3 78 -5 57 -5 -44
-26 -46 -31 -4 -4 37 -19 34 -28 -5 -7 -32 -7 -32 -17 -10 -6 12 -13 22 -17
22 -5 0 -11 11 -14 25 -4 14 -13 25 -20 25 -8 0 -17 8 -21 18 -15 37 -45 167
-45 192 0 31 -22 59 -67 85 -18 11 -33 22 -33 25 0 3 -8 6 -17 7 -131 10 -176
12 -165 7z"></path>
<path d="M14704 1868 c-32 -16 -75 -37 -94 -48 -19 -11 -42 -18 -51 -16 -11 2
-16 -2 -14 -13 4 -26 -6 -33 -21 -14 -13 17 -13 17 -14 -4 0 -15 -5 -21 -15
-17 -9 4 -11 10 -4 17 33 40 46 53 64 63 10 6 21 16 23 22 6 19 -64 -26 -103
-66 -20 -20 -38 -47 -41 -59 -4 -13 -10 -23 -14 -23 -11 0 -37 -77 -49 -144
-41 -229 38 -422 204 -501 130 -61 272 -59 407 4 118 56 207 221 208 388 0 68
-19 155 -32 147 -6 -4 -8 1 -3 15 5 15 3 19 -8 16 -8 -4 -21 8 -32 30 -11 19
-23 35 -26 35 -4 0 -18 17 -30 38 -13 20 -34 47 -48 60 -35 32 -185 101 -219
100 -16 -1 -56 -14 -88 -30z m146 -37 c49 -26 84 -98 106 -218 15 -85 16 -113
6 -214 -13 -125 -29 -183 -68 -242 -33 -50 -95 -79 -145 -68 -63 14 -119 53
-141 96 -12 22 -25 43 -30 46 -12 7 -11 48 1 224 13 180 27 247 65 304 58 86
132 112 206 72z m-275 -148 c-3 -31 -8 -59 -10 -62 -19 -19 -32 82 -14 103 24
27 30 18 24 -41z"></path>
<path d="M105 1867 c-9 -34 0 -47 34 -47 15 0 32 -5 39 -12 14 -14 18 -654 4
-675 -4 -6 -23 -13 -42 -15 -31 -3 -35 -6 -35 -33 l0 -30 180 -3 c217 -3 362
10 423 40 62 30 106 78 121 131 15 50 7 107 -15 107 -7 0 -21 12 -31 28 -23
36 -45 51 -126 88 -37 17 -70 34 -73 36 -3 3 23 16 57 29 34 13 82 42 106 64
37 34 45 47 49 85 4 39 3 42 -7 23 -9 -17 -21 -23 -46 -23 -18 0 -33 5 -33 11
0 5 -3 8 -7 6 -5 -3 -13 1 -20 8 -9 10 -8 17 6 32 20 22 12 63 -13 63 -8 0
-16 4 -18 8 -7 18 -122 64 -173 69 -41 4 -61 2 -80 -11 -24 -16 -25 -21 -25
-103 0 -122 -24 -93 -29 35 -1 6 -8 12 -17 12 -8 0 -13 4 -10 9 3 5 -2 12 -11
15 -9 4 -19 2 -23 -4 -11 -17 -33 -7 -54 23 -16 24 -17 30 -5 38 10 6 5 9 -16
9 -16 0 -47 3 -67 6 -34 6 -38 4 -43 -19z m425 -65 c48 -24 70 -67 71 -140 2
-98 -31 -130 -151 -151 -58 -10 -76 -2 -64 29 3 8 8 69 11 135 2 66 6 126 8
133 6 18 84 14 125 -6z m-153 -204 c-3 -8 -6 -5 -6 6 -1 11 2 17 5 13 3 -3 4
-12 1 -19z m173 -155 c54 -37 72 -77 72 -156 0 -113 -33 -148 -149 -155 l-73
-5 0 167 0 166 63 0 c43 0 70 -5 87 -17z"></path>
<path d="M950 1856 c0 -34 2 -36 34 -36 19 0 37 -4 41 -9 3 -5 5 -159 5 -342
0 -357 1 -349 -51 -349 -19 0 -28 -6 -32 -22 -13 -48 -8 -48 357 -46 l341 3 0
110 c0 91 -3 110 -15 110 -8 0 -19 6 -23 13 -10 15 -33 16 -42 2 -3 -6 -12
-40 -19 -77 -10 -58 -16 -68 -37 -74 -33 -10 -259 -11 -259 -1 -6 105 -8 281
-4 295 4 14 17 17 74 17 78 0 90 -10 90 -74 0 -34 2 -36 35 -36 l35 0 0 138
c-1 97 -4 132 -11 120 -5 -10 -9 -24 -8 -30 1 -7 1 -29 0 -48 -2 -56 -21 -14
-21 48 0 39 -4 52 -15 52 -10 0 -15 -10 -15 -29 0 -73 -19 -87 -125 -94 l-40
-2 0 160 0 160 60 2 c33 1 88 -1 122 -4 56 -5 62 -7 68 -32 3 -14 13 -50 21
-78 15 -52 16 -53 55 -53 39 0 39 0 39 39 0 50 -10 78 -21 60 -5 -9 -13 0 -24
28 -26 66 -46 73 -188 73 -82 0 -127 -4 -135 -12 -8 -8 -12 -57 -12 -155 0
-84 -4 -143 -10 -143 -9 0 -30 62 -30 92 0 32 -23 68 -47 74 -13 4 -23 14 -23
23 0 9 -7 29 -15 45 -8 15 -15 34 -15 41 0 7 -7 18 -15 25 -9 7 -14 19 -11 27
4 9 -5 13 -32 13 -20 0 -47 3 -59 6 -21 6 -23 3 -23 -30z m276 -382 c-15 -14
-16 -13 -16 16 0 29 1 30 16 16 14 -15 14 -17 0 -32z"></path>
<path d="M1767 1869 c-9 -34 2 -48 41 -51 l37 -3 3 -341 2 -341 -32 -9 c-28
-8 -33 -15 -33 -39 l0 -30 318 -3 317 -2 0 112 c-1 102 -2 111 -15 94 -14 -18
-15 -18 -15 -2 0 9 -4 14 -10 11 -5 -3 -11 1 -11 9 -2 28 -4 34 -10 40 -12 12
-25 -19 -43 -97 -21 -91 -18 -89 -156 -85 l-95 3 -5 225 c-3 124 -7 207 -9
185 -2 -22 -6 -51 -11 -65 -8 -27 -9 -25 -31 44 -6 22 -23 65 -38 95 -14 31
-26 63 -27 72 -3 37 -69 152 -93 162 -14 7 -28 14 -31 18 -3 3 -15 9 -26 13
-17 5 -23 2 -27 -15z"></path>
<path d="M2850 1858 c-11 -18 -33 -73 -49 -123 -17 -49 -49 -142 -72 -205 -23
-63 -63 -176 -88 -250 -25 -74 -50 -141 -54 -147 -5 -7 -23 -13 -42 -13 -36 0
-47 -15 -38 -49 5 -21 10 -21 127 -19 l121 3 0 25 c0 21 -6 26 -42 33 -24 4
-43 13 -43 19 0 6 14 48 31 93 30 80 33 83 68 89 49 8 162 6 185 -3 12 -4 27
-33 42 -82 31 -96 30 -107 -3 -111 -24 -3 -28 -8 -28 -33 l0 -30 171 -3 c184
-3 200 1 183 46 -6 14 -17 22 -33 22 -60 0 -104 47 -121 125 -10 49 -27 85
-37 79 -12 -7 -48 25 -48 43 0 7 -4 13 -8 13 -9 0 -25 46 -37 105 -4 16 -11
33 -17 36 -6 4 -11 21 -10 38 1 30 -31 74 -72 96 -9 6 -21 26 -25 45 -4 20
-13 34 -20 32 -7 -1 -10 2 -6 8 4 6 1 18 -6 26 -8 9 -10 33 -6 69 3 30 4 55 1
55 -2 0 -13 -15 -24 -32z m38 -250 c12 -40 27 -95 33 -123 7 -27 16 -58 21
-68 18 -34 -8 -47 -94 -47 -93 0 -101 8 -74 79 10 25 26 75 36 111 23 84 37
120 48 120 5 0 19 -33 30 -72z"></path>
<path d="M3420 1875 c-22 -27 -7 -50 35 -55 35 -5 40 -8 47 -40 4 -19 6 -172
4 -338 -3 -317 -4 -324 -46 -321 -45 4 -51 -1 -48 -33 l3 -33 150 -3 c83 -2
169 0 193 3 40 6 43 9 40 33 -2 18 -10 28 -23 30 -62 9 -65 11 -65 47 0 19 -4
35 -10 35 -5 0 -10 -10 -10 -22 0 -39 -20 -5 -24 42 -3 25 -9 58 -15 74 -7 16
-9 37 -6 46 3 10 1 21 -5 25 -5 3 -8 18 -4 33 5 25 4 26 -9 9 -14 -16 -15 -16
-19 7 -3 14 0 28 6 31 8 3 7 7 -1 11 -7 3 -13 10 -13 15 0 6 5 7 12 3 7 -4 8
-3 4 4 -4 7 -9 20 -11 29 -3 10 -9 36 -14 58 -5 22 -8 75 -7 118 2 43 -1 80
-6 83 -4 3 -8 14 -8 24 0 21 -43 55 -83 65 -15 4 -27 11 -27 15 0 15 -29 19
-40 5z m214 -530 c-4 -8 -8 -15 -10 -15 -2 0 -4 7 -4 15 0 8 4 15 10 15 5 0 7
-7 4 -15z"></path>
<path d="M10879 1863 c-13 -34 -4 -43 44 -43 23 0 47 -4 54 -8 7 -5 14 -80 18
-235 5 -125 12 -227 17 -227 4 0 7 100 5 223 -2 222 -11 277 -41 277 -7 0 -29
9 -49 19 l-38 19 -10 -25z"></path>
<path d="M6032 1871 c-8 -5 -12 -17 -10 -27 2 -14 13 -20 41 -22 54 -5 60 -26
51 -199 -5 -104 -4 -143 5 -143 14 0 16 323 1 349 -5 10 -25 22 -45 25 -20 4
-33 11 -30 17 7 11 4 11 -13 0z"></path>
<path d="M6610 1853 c0 -31 1 -31 55 -35 37 -2 55 1 55 8 0 15 -23 24 -60 24
-17 0 -33 7 -39 18 -9 14 -10 12 -11 -15z"></path>
<path d="M7360 1871 c-33 -8 -88 -42 -94 -57 -3 -7 17 1 44 18 43 26 56 30 97
25 42 -4 54 -12 94 -55 34 -37 50 -66 63 -111 23 -83 34 -327 16 -380 -6 -21
-10 -46 -8 -57 10 -42 29 66 35 191 5 127 2 162 -30 287 -30 117 -108 167
-217 139z"></path>
<path d="M8202 1853 c3 -24 8 -29 43 -33 l40 -5 3 -320 c1 -176 0 -330 -3
-342 -5 -20 -12 -23 -50 -23 -39 0 -45 -3 -51 -25 -13 -52 -6 -55 138 -55 73
0 139 4 146 9 8 4 12 19 10 32 -3 21 -10 25 -53 29 l-50 5 -3 53 c-2 43 -6 53
-18 48 -9 -4 -18 3 -24 19 -10 27 -15 529 -5 544 3 5 0 21 -6 35 -8 18 -22 26
-50 31 -22 4 -37 11 -33 16 3 5 -4 9 -16 9 -17 0 -21 -5 -18 -27z"></path>
<path d="M12950 1851 c0 -27 3 -30 38 -33 l37 -3 5 -135 c3 -74 3 -229 0 -345
l-5 -210 -38 -3 c-36 -3 -38 -5 -35 -35 l3 -32 145 -3 c80 -2 164 0 188 3 40
6 43 9 40 33 -3 23 -9 28 -43 32 -49 6 -52 15 -55 185 l-3 120 -7 -108 c-8
-114 -15 -138 -26 -91 -4 16 -15 41 -25 55 -43 61 -63 140 -60 239 3 153 4
159 14 153 6 -4 7 -1 2 7 -4 7 -9 33 -10 58 -3 59 -41 109 -90 118 -19 3 -38
10 -41 15 -13 21 -34 8 -34 -20z"></path>
<path d="M13480 1851 c0 -27 3 -30 38 -33 37 -3 37 -3 44 -58 3 -30 6 -180 7
-332 1 -232 -1 -279 -14 -291 -8 -9 -23 -13 -32 -11 -10 3 -26 -1 -37 -9 -27
-20 -13 -53 26 -61 40 -8 252 -8 312 0 45 7 47 8 44 38 -3 28 -7 31 -43 36
-36 5 -40 8 -48 45 -5 22 -6 82 -3 133 4 60 3 92 -4 92 -6 0 -10 -27 -10 -65
0 -51 -3 -65 -15 -65 -8 0 -15 5 -15 10 0 6 -4 9 -9 8 -5 -2 -20 10 -35 25
-14 15 -31 25 -36 22 -6 -4 -9 -3 -8 2 2 4 -8 25 -21 46 -22 37 -23 45 -19
155 5 111 18 164 44 187 7 6 15 21 19 35 6 24 5 24 -9 6 -9 -11 -16 -24 -16
-29 0 -4 -5 -5 -11 -2 -6 4 -8 13 -5 21 6 15 -24 65 -63 103 -16 16 -26 20
-29 13 -2 -7 -8 -12 -13 -12 -6 0 -7 5 -4 10 3 6 -3 10 -14 10 -17 0 -21 -6
-21 -29z"></path>
<path d="M4312 1848 c2 -16 11 -24 28 -26 14 -1 35 -5 48 -7 l22 -5 0 -334 c0
-257 -3 -336 -13 -344 -7 -6 -33 -12 -57 -14 -39 -3 -45 -6 -48 -27 -2 -13 2
-28 10 -33 13 -9 216 -9 262 -1 19 4 26 11 26 28 0 20 -6 23 -59 29 -102 12
-96 -13 -99 362 -2 181 -8 337 -13 346 -5 10 -22 20 -37 23 -15 4 -35 10 -44
16 -26 13 -30 11 -26 -13z"></path>
<path d="M10293 1854 c-8 -21 6 -32 47 -36 l35 -3 3 -334 c2 -238 -1 -338 -9
-347 -6 -8 -29 -14 -51 -14 -38 0 -39 -1 -36 -32 l3 -33 140 0 140 0 0 30 c0
29 -2 30 -50 33 -27 2 -53 9 -57 15 -4 7 -8 95 -9 197 0 113 -4 177 -9 165 -5
-11 -9 -34 -9 -52 -1 -17 -5 -34 -10 -38 -15 -8 -24 119 -13 172 l9 48 8 -32
c12 -51 25 -28 25 43 0 35 4 64 10 64 5 0 28 -28 51 -62 24 -35 55 -79 69 -98
15 -19 80 -109 145 -200 66 -91 143 -198 173 -238 l54 -73 56 3 57 3 3 35 c2
19 0 87 -4 150 -8 112 -8 114 -14 52 -4 -34 -10 -65 -13 -68 -3 -3 -18 2 -34
12 -84 52 -131 84 -142 98 -8 9 -19 16 -25 16 -14 0 -66 73 -66 93 0 16 -60
73 -94 88 -11 6 -31 24 -44 42 -12 18 -38 52 -58 77 -20 25 -48 60 -62 79 -15
18 -40 39 -55 46 -16 6 -39 29 -51 51 -16 30 -31 41 -64 51 -37 10 -44 10 -49
-3z"></path>
<path d="M12120 1845 c0 -22 4 -25 40 -25 33 0 41 -4 45 -22 3 -13 4 -169 3
-348 l-3 -325 -40 -5 c-33 -4 -41 -9 -43 -29 -2 -13 2 -28 10 -32 17 -11 665
-12 672 0 3 4 3 46 -1 92 -4 46 -9 77 -11 67 -7 -32 -31 -28 -44 7 -6 19 -15
35 -20 35 -8 0 -28 -65 -28 -91 0 -30 -24 -36 -152 -42 -144 -7 -165 -2 -188
46 -14 30 -18 32 -58 29 -23 -2 -42 0 -41 5 1 4 0 15 -3 23 -7 16 -26 451 -24
538 1 61 -16 82 -66 82 -15 0 -28 5 -28 10 0 6 -4 10 -10 10 -5 0 -10 -11 -10
-25z"></path>
<path d="M5532 1842 c2 -11 17 -19 43 -22 l40 -5 3 -328 c1 -208 -1 -335 -8
-347 -6 -11 -23 -20 -43 -22 -25 -2 -33 -8 -35 -27 -2 -13 2 -28 10 -32 15
-10 194 -12 291 -2 54 5 67 9 65 21 -2 11 -25 19 -73 28 -121 20 -155 33 -165
60 -5 13 -13 164 -16 335 -5 197 -11 315 -18 324 -6 8 -30 18 -54 24 -38 8
-43 7 -40 -7z"></path>
<path d="M13244 1846 c-18 -13 -19 -28 -20 -218 l-1 -203 7 195 c4 107 7 196
8 197 1 1 21 3 44 5 31 2 44 8 46 21 3 13 -4 17 -30 17 -19 0 -43 -6 -54 -14z"></path>
<path d="M13783 1850 c-13 -5 -23 -16 -23 -25 0 -9 -7 -18 -16 -22 -8 -3 -13
-12 -10 -20 4 -10 1 -11 -13 -4 -16 9 -18 7 -18 -14 0 -14 3 -22 8 -19 5 3 9
-2 9 -10 0 -9 5 -16 10 -16 6 0 10 5 10 12 0 29 13 -6 19 -54 l7 -53 10 95 9
95 63 -1 c113 -2 157 -58 148 -187 l-6 -79 26 17 c14 9 28 14 32 11 3 -3 2 -6
-3 -6 -4 0 -2 -7 5 -15 18 -22 6 -41 -37 -62 -33 -16 -35 -18 -15 -21 59 -9
165 51 188 106 16 38 20 127 5 103 -5 -8 -29 -16 -53 -17 -36 -3 -46 1 -65 24
-23 28 -30 67 -14 76 14 9 -41 66 -64 66 -12 0 -25 4 -31 10 -14 14 -154 22
-181 10z"></path>
<path d="M2062 1838 c-7 -7 -11 -34 -10 -62 l1 -51 6 45 6 45 48 5 c26 3 49
10 50 15 3 15 -86 18 -101 3z"></path>
<path d="M3707 1843 c-4 -3 -6 -25 -5 -47 1 -37 2 -38 5 -8 4 31 5 32 53 32
121 0 176 -59 168 -179 -3 -36 -8 -74 -13 -83 -12 -30 9 -20 33 15 24 37 28
81 11 142 -25 89 -89 134 -190 135 -31 0 -59 -3 -62 -7z"></path>
<path d="M9199 1834 c-11 -14 -8 -15 31 -12 24 2 45 9 48 16 6 18 -63 15 -79
-4z"></path>
<path d="M11089 1840 c-17 -11 11 -17 46 -10 l30 6 -32 5 c-18 3 -38 2 -44 -1z"></path>
<path d="M11753 1843 c-13 -2 -23 -10 -23 -16 0 -8 26 -12 80 -13 44 -1 82 -3
85 -6 3 -2 11 -42 19 -88 8 -45 19 -87 24 -92 5 -5 25 -8 43 -6 38 3 45 19 35
73 -5 27 -10 32 -26 28 -16 -4 -25 5 -47 53 -14 33 -31 62 -37 66 -11 8 -115
8 -153 1z"></path>
<path d="M5315 1830 c-4 -6 8 -10 29 -10 19 0 38 5 41 10 4 6 -8 10 -29 10
-19 0 -38 -4 -41 -10z"></path>
<path d="M5863 1833 c9 -2 23 -2 30 0 6 3 -1 5 -18 5 -16 0 -22 -2 -12 -5z"></path>
<path d="M6810 1830 c0 -5 15 -10 34 -10 19 0 38 5 41 10 4 6 -10 10 -34 10
-23 0 -41 -4 -41 -10z"></path>
<path d="M11256 1810 c-4 -19 -8 -69 -9 -110 l-2 -75 38 -3 c32 -3 38 0 47 23
6 14 10 40 10 56 0 26 -3 29 -24 23 -22 -5 -26 -1 -35 33 -6 21 -12 49 -14 63
-3 22 -4 21 -11 -10z"></path>
<path d="M11375 1830 c-4 -6 19 -10 62 -10 37 0 75 -5 83 -10 13 -8 15 -55 12
-342 -3 -241 -7 -335 -15 -340 -7 -4 -29 -8 -49 -8 -28 0 -38 -5 -43 -20 -14
-45 5 -50 200 -50 101 0 190 3 199 6 19 7 21 35 4 52 -7 7 -27 12 -45 12 -48
0 -53 21 -55 238 -1 166 -2 176 -8 92 -4 -52 -8 -140 -9 -194 -1 -97 -1 -99
-20 -80 -10 10 -16 23 -13 28 3 5 0 6 -6 2 -19 -11 -61 38 -64 75 -1 19 -6 36
-10 40 -4 3 -4 19 1 37 5 18 6 32 2 32 -3 0 -7 8 -7 18 -1 9 -9 51 -18 92 -9
45 -16 120 -16 188 0 62 -5 122 -10 133 -9 16 -22 19 -90 19 -43 0 -82 -4 -85
-10z"></path>
<path d="M12425 1830 c-4 -7 32 -10 107 -10 118 0 138 -6 138 -43 0 -10 7 -43
16 -74 16 -54 16 -54 52 -51 37 3 37 3 40 52 3 43 1 48 -12 37 -25 -21 -47 -9
-76 44 l-28 50 -115 3 c-72 2 -118 -1 -122 -8z"></path>
<path d="M8946 1815 c-3 -9 -6 -22 -5 -28 0 -7 5 -1 10 12 5 13 8 26 5 28 -2
2 -6 -3 -10 -12z"></path>
<path d="M8980 1760 c-8 -15 -8 -25 -1 -34 8 -9 10 -107 9 -307 l-3 -294 -38
-3 c-36 -3 -38 -5 -35 -35 l3 -32 160 -3 c194 -3 207 -1 203 36 -3 23 -8 28
-43 32 -47 6 -51 17 -55 150 l-3 85 -6 -67 c-9 -97 -29 -109 -39 -21 -5 47
-20 73 -42 73 -6 0 -19 8 -29 18 -14 13 -18 35 -19 105 -1 48 -6 107 -11 130
-5 23 -13 72 -16 110 -8 73 -18 89 -35 57z"></path>
<path d="M7050 1747 c-21 -30 -31 -57 -22 -57 7 1 44 72 39 77 -2 1 -9 -8 -17
-20z"></path>
<path d="M5031 1744 c0 -11 3 -14 6 -6 3 7 2 16 -1 19 -3 4 -6 -2 -5 -13z"></path>
<path d="M4490 1731 c0 -11 5 -21 12 -23 6 -2 12 -12 14 -21 3 -21 33 -116 44
-142 5 -11 19 -47 30 -80 21 -59 26 -72 50 -130 7 -16 23 -64 37 -105 14 -41
37 -101 51 -133 l27 -58 44 3 44 3 32 100 c18 55 36 111 40 125 6 19 0 16 -26
-17 -37 -45 -59 -58 -86 -48 -26 8 -129 162 -144 215 -7 25 -20 56 -29 70 -9
14 -42 78 -73 143 -31 64 -59 117 -62 117 -3 0 -5 -9 -5 -19z"></path>
<path d="M5108 1449 c2 -213 0 -305 -8 -314 -6 -8 -28 -15 -48 -17 -29 -2 -38
-8 -40 -25 -6 -39 27 -46 205 -41 89 2 166 8 170 12 17 17 -15 41 -58 44 -75
4 -179 23 -185 34 -6 9 -14 186 -19 433 -3 157 -4 175 -12 175 -5 0 -7 -135
-5 -301z"></path>
<path d="M8365 1740 c-4 -6 0 -17 8 -23 8 -7 18 -25 21 -42 4 -16 35 -104 70
-195 36 -91 83 -217 106 -280 23 -63 46 -125 51 -138 8 -20 15 -23 55 -20 l46
3 23 70 c52 154 73 213 105 285 36 82 53 140 40 140 -5 0 -11 -8 -14 -18 -8
-23 -36 -25 -37 -3 0 14 -1 14 -6 1 -3 -8 -11 -22 -18 -30 -7 -8 -21 -42 -31
-75 -10 -33 -24 -65 -31 -72 -10 -7 -11 -13 -3 -18 6 -4 17 9 26 30 8 21 18
35 21 31 10 -10 -19 -96 -32 -96 -8 0 -15 -6 -17 -12 -6 -17 -58 6 -58 26 0 7
-25 39 -54 71 -30 31 -56 64 -58 73 -2 9 -12 18 -23 20 -32 6 -43 20 -61 75
-25 76 -117 216 -129 197z m461 -312 c-13 -18 -16 -19 -16 -6 0 10 6 30 13 45
11 26 12 26 15 5 2 -12 -4 -32 -12 -44z"></path>
<path d="M6177 1723 c-4 -3 0 -13 9 -22 9 -9 88 -117 176 -241 183 -257 297
-412 313 -423 5 -4 33 -6 60 -5 l50 3 3 57 c2 32 -2 66 -7 75 -10 17 -10 17
-11 0 0 -10 -3 -17 -7 -15 -5 2 -26 12 -48 22 -22 10 -42 21 -45 25 -3 4 -21
17 -41 29 -36 22 -85 75 -154 166 -20 26 -49 62 -65 80 -15 17 -51 63 -80 101
-54 72 -129 155 -140 155 -4 0 -10 -3 -13 -7z"></path>
<path d="M8896 1703 c-3 -10 -9 -24 -12 -30 -3 -7 -1 -13 4 -13 5 0 13 12 16
26 8 30 2 44 -8 17z"></path>
<path d="M11050 1669 c0 -24 4 -38 10 -34 6 3 10 22 10 41 0 19 -4 34 -10 34
-5 0 -10 -18 -10 -41z"></path>
<path d="M7006 1664 c-3 -9 -6 -27 -6 -40 0 -13 -4 -24 -9 -24 -17 0 -24 -151
-12 -233 17 -109 41 -158 113 -231 89 -90 144 -110 303 -110 108 -1 125 2 175
25 97 45 169 124 196 215 16 55 7 56 -26 4 -36 -59 -143 -150 -184 -157 -19
-3 -36 -1 -40 6 -5 7 -16 2 -34 -14 -39 -36 -94 -43 -177 -22 -11 3 -23 6 -26
6 -23 3 -161 118 -194 162 -54 72 -74 120 -86 210 -9 67 -8 87 9 148 10 39 16
71 12 71 -4 0 -11 -7 -14 -16z"></path>
<path d="M4083 1596 c-39 -49 -61 -63 -163 -109 l-35 -16 35 0 c61 -1 110 19
155 63 36 36 66 99 53 111 -1 1 -22 -21 -45 -49z"></path>
<path d="M8871 1624 c0 -11 3 -14 6 -6 3 7 2 16 -1 19 -3 4 -6 -2 -5 -13z"></path>
<path d="M12574 1596 c-3 -8 -1 -23 5 -33 9 -15 10 -13 11 15 0 34 -7 42 -16
18z"></path>
<path d="M6723 1574 c-3 -8 -1 -20 4 -25 7 -7 11 -2 11 15 0 29 -6 33 -15 10z"></path>
<path d="M11052 1565 c0 -16 2 -22 5 -12 2 9 2 23 0 30 -3 6 -5 -1 -5 -18z"></path>
<path d="M12428 1473 c-41 -10 -13 -22 59 -25 l78 -3 8 -50 c10 -62 19 -72 52
-57 21 10 25 17 20 35 -4 12 -12 27 -19 32 -7 6 -19 25 -27 43 -14 32 -14 32
-84 31 -38 -1 -78 -3 -87 -6z"></path>
<path d="M3631 1454 c0 -11 3 -14 6 -6 3 7 2 16 -1 19 -3 4 -6 -2 -5 -13z"></path>
<path d="M3713 1454 c-9 -4 -12 -26 -11 -67 l2 -62 3 54 4 53 54 -4 c77 -6 97
-34 125 -168 39 -185 74 -232 176 -231 109 0 194 52 100 59 -47 4 -108 48
-133 96 -9 17 -22 36 -30 41 -8 6 -14 15 -13 20 5 21 -1 33 -27 62 -16 17 -39
47 -53 67 -39 56 -78 79 -135 83 -27 1 -56 0 -62 -3z"></path>
<path d="M13786 1452 c-3 -6 7 -13 24 -16 16 -3 43 -8 58 -11 38 -8 77 -70 91
-147 37 -204 72 -252 178 -251 69 1 137 23 141 47 5 23 -18 48 -36 41 -19 -7
-52 23 -52 48 0 16 -3 17 -14 8 -12 -10 -18 -7 -30 13 -9 14 -23 37 -31 51 -8
13 -15 33 -15 45 0 11 -7 20 -15 20 -16 0 -65 28 -76 43 -3 5 -10 7 -15 6 -5
-2 -14 8 -21 21 -25 53 -69 83 -126 88 -32 2 -57 0 -61 -6z"></path>
<path d="M4938 1367 c-24 -71 -22 -84 3 -22 10 28 18 56 17 62 -2 7 -11 -11
-20 -40z"></path>
<path d="M6118 1374 c-5 -4 -8 -58 -8 -120 0 -105 -2 -114 -22 -128 -12 -9
-31 -13 -44 -10 -19 5 -24 1 -30 -20 -3 -15 -4 -30 0 -33 6 -7 72 -8 219 -5
65 2 68 3 65 25 -3 19 -10 22 -53 25 -27 1 -64 4 -82 7 l-32 6 -3 130 c-2 72
-6 127 -10 123z"></path>
<path d="M3702 1295 c0 -16 2 -22 5 -12 2 9 2 23 0 30 -3 6 -5 -1 -5 -18z"></path>
<path d="M3690 1220 c0 -5 5 -10 10 -10 6 0 10 5 10 10 0 6 -4 10 -10 10 -5 0
-10 -4 -10 -10z"></path>
<path d="M6136 483 c9 -21 20 -48 25 -61 5 -12 35 -77 67 -145 32 -67 67 -141
77 -164 10 -23 25 -45 33 -48 24 -9 61 6 68 28 4 12 31 74 62 137 66 140 112
248 112 266 0 8 -9 14 -21 14 -16 0 -30 -20 -66 -97 -115 -248 -117 -253 -135
-253 -10 0 -18 4 -18 8 0 5 -8 17 -18 28 -23 24 -72 123 -72 144 0 8 -9 23
-20 33 -11 9 -20 24 -20 32 0 8 -3 15 -7 15 -5 0 -19 23 -32 50 -30 61 -60 71
-35 13z m415 4 c-6 -8 -8 -16 -5 -20 3 -3 1 -14 -5 -24 -9 -16 -10 -15 -11 8
0 14 5 30 12 37 16 16 23 15 9 -1z"></path>
<path d="M7053 503 c-35 -11 -53 -22 -57 -36 -3 -12 -10 -17 -20 -14 -21 8
-65 -64 -78 -126 -20 -97 27 -189 123 -242 47 -26 64 -30 129 -30 116 1 197
50 236 144 16 38 20 126 4 101 -12 -19 -14 -15 -29 50 -13 59 -33 88 -96 135
-32 24 -50 30 -100 32 -33 1 -83 -5 -112 -14z m186 -42 c89 -45 126 -157 83
-254 -56 -125 -250 -146 -332 -34 -16 22 -30 45 -30 50 0 6 -6 15 -14 21 -8 6
-18 38 -22 71 -4 34 -3 56 2 52 9 -9 10 -12 13 -44 1 -11 13 3 28 32 33 66 60
94 108 116 47 21 111 17 164 -10z"></path>
<path d="M7930 508 c-32 -15 -103 -60 -112 -73 -5 -6 -8 -4 -8 5 -1 30 -50
-41 -66 -96 -31 -107 10 -197 117 -254 54 -29 74 -34 131 -34 54 0 77 5 124
30 77 39 124 99 124 157 -1 37 -2 40 -14 25 -18 -24 -26 -22 -26 6 0 27 -28
36 -111 36 -42 0 -49 -3 -49 -20 0 -18 7 -20 70 -20 l70 0 0 -29 c0 -19 -13
-43 -40 -74 -34 -39 -49 -48 -97 -57 -100 -21 -171 3 -216 74 -32 52 -39 96
-23 151 41 135 173 183 305 109 32 -18 54 -25 67 -20 17 7 16 9 -11 23 -16 9
-37 21 -45 28 -18 16 -115 45 -144 44 -12 0 -32 -5 -46 -11z m-141 -122 c-9
-8 -10 -7 -5 7 3 10 7 24 7 30 1 7 3 4 6 -7 3 -10 -1 -23 -8 -30z m-10 -73
c-1 -50 -2 -53 -9 -26 -7 30 -3 83 6 83 2 0 4 -26 3 -57z"></path>
<path d="M9327 514 c-4 -4 -7 -106 -7 -226 l0 -218 128 0 c153 0 214 15 259
62 46 49 53 70 52 150 -1 40 -4 63 -6 50 -6 -33 -23 -16 -23 23 0 18 -4 35 -8
37 -4 2 -18 17 -30 34 -29 43 -119 84 -180 83 -72 -1 -143 -15 -152 -30 -9
-14 -11 -11 -22 29 -2 7 -7 10 -11 6z m301 -68 c43 -22 71 -84 72 -154 0 -70
-22 -114 -73 -148 -39 -27 -49 -29 -142 -29 l-100 0 -3 165 c-1 90 0 171 3
178 8 21 198 12 243 -12z"></path>
<path d="M10263 513 c-13 -2 -23 -9 -23 -14 0 -5 -8 -9 -19 -9 -30 0 -85 -70
-105 -134 -16 -50 -17 -66 -7 -111 39 -175 253 -250 407 -145 23 17 52 46 64
65 26 41 38 142 22 171 -9 14 -11 15 -12 4 0 -8 -10 5 -22 30 -12 25 -28 51
-35 58 -7 7 -16 19 -20 27 -5 7 -30 25 -57 39 -39 21 -62 26 -110 25 -34 -1
-71 -4 -83 -6z m148 -33 c20 -6 55 -27 78 -48 36 -32 43 -46 53 -97 25 -139
-52 -234 -190 -235 -69 0 -112 21 -149 73 -75 103 -38 235 82 296 44 23 73 26
126 11z"></path>
<path d="M4813 498 c-21 -25 -64 -129 -58 -138 3 -6 0 -10 -7 -10 -7 0 -44
-61 -81 -137 -52 -104 -65 -138 -55 -144 13 -9 51 -2 56 10 1 3 13 24 25 46
l23 40 104 8 c58 4 114 6 126 3 12 -3 29 -25 44 -56 21 -45 27 -50 57 -50 36
0 44 18 18 40 -8 7 -15 18 -15 25 0 8 -3 15 -7 17 -11 5 -53 66 -53 77 0 5 -4
11 -8 13 -4 2 -30 48 -57 102 -27 55 -56 107 -66 117 -9 9 -21 24 -26 34 -8
13 -12 14 -20 3z m76 -158 c61 -118 60 -120 -48 -120 -50 0 -92 4 -96 10 -7
11 81 190 94 190 5 0 28 -36 50 -80z"></path>
<path d="M5390 290 c0 -169 3 -220 13 -221 45 -4 152 -3 208 2 133 12 220 89
218 193 0 28 -3 45 -6 38 -7 -19 -23 -4 -23 23 0 32 -33 106 -57 127 -39 35
-96 51 -193 54 -53 2 -101 0 -106 -4 -6 -4 -16 -20 -22 -37 l-10 -30 -1 38
c-1 20 -5 37 -11 37 -6 0 -10 -80 -10 -220z m265 173 c33 -9 84 -52 101 -85
19 -37 15 -150 -6 -184 -18 -29 -68 -59 -122 -72 -53 -13 -164 -16 -172 -4 -2
4 -6 83 -8 175 -2 140 0 170 12 178 15 9 154 4 195 -8z"></path>
<path d="M8725 448 c4 -22 2 -26 -10 -22 -12 5 -15 -2 -15 -27 0 -26 -3 -30
-10 -19 -8 12 -10 10 -10 -9 0 -13 -3 -21 -7 -17 -4 3 -17 -15 -28 -41 -17
-36 -20 -52 -12 -65 6 -9 8 -21 4 -25 -5 -4 -12 -1 -17 7 -11 18 -11 18 -49
-57 -17 -34 -35 -64 -41 -68 -23 -14 -10 -35 23 -35 30 0 35 5 60 55 l27 55
125 0 126 0 24 -55 c22 -49 28 -55 55 -55 37 0 38 11 5 54 -14 18 -25 39 -25
47 0 8 -9 20 -20 27 -11 7 -20 21 -20 31 0 11 -3 21 -7 23 -9 4 -36 48 -61 98
-9 19 -19 37 -22 40 -3 3 -14 22 -25 43 -21 40 -39 47 -50 20 -7 -17 -8 -16
-16 2 -8 16 -8 15 -4 -7z m75 -64 c14 -27 34 -71 44 -98 24 -62 18 -66 -101
-66 l-92 0 43 89 c24 48 46 98 49 111 8 32 28 20 57 -36z"></path>
<path d="M37 263 c-4 -3 -7 -27 -7 -53 l0 -47 73 -6 c99 -8 4202 0 4228 8 14
5 19 14 17 28 l-3 22 -745 7 c-410 3 -1179 9 -1710 12 -531 4 -976 9 -990 12
-54 11 -106 12 -119 1 -12 -10 -13 -9 -7 1 7 12 -2 13 -50 7 -85 -10 -535 -15
-530 -6 3 4 -1 8 -9 8 -8 0 -12 -5 -8 -10 3 -5 -4 -4 -15 2 -29 16 -85 15 -76
-1 4 -7 -2 -5 -13 5 -22 19 -26 20 -36 10z"></path>
<path d="M15238 245 c-7 -7 -187 -9 -1973 -20 -1620 -10 -2339 -9 -2343 4 -9
26 -22 8 -22 -29 l0 -40 1463 -2 c2112 -3 2879 0 2890 11 6 6 6 24 1 46 -5 20
-12 34 -16 30z"></path>
</g>
</svg><style>@media (prefers-color-scheme: light) { :root { filter: none; } }
@media (prefers-color-scheme: dark) { :root { filter: none; } }
</style></svg>